:FULLY-SPECIFIED
:FORCE-ALL-JOINTS-BE-3DOF
:DEGREES
356
root 9.34078 16.8678 14.07 6.03834 7.41628 -2.1855
lfemur -12.8288 6.30589 -14.2034
ltibia 49.0701 0 0
lfoot -0.0211935 6.79532 0
ltoes -7.94613 0 0
rfemur -23.9945 4.20621 26.4483
rtibia 35.1176 0 0
rfoot -15.5956 2.14989 0
rtoes -13.2431 0 0
lowerback -6.01094 -2.08113 -1.14626
upperback -1.14487 -2.77793 3.11577
thorax 2.46951 -1.40412 3.6194
lowerneck -19.9156 -5.84363 -12.9334
upperneck 21.0625 -7.61235 13.5314
head 11.1727 -2.95051 5.95087
lclavicle 1.97981e-016 3.9757e-015 0
lhumerus -37.0816 -19.437 99.3165
lradius 25.9812 0 0
lwrist 7.16848 0 0
lhand -12.3244 -22.4157 0
lfingers 7.12502 0 0
lthumb 13.7437 7.09938 0
rclavicle 1.97981e-016 3.9757e-015 0
rhumerus -39.9618 10.9171 -82.5044
rradius 37.2033 0 0
rwrist -19.6653 0 0
rhand -29.9235 -24.1423 0
rfingers 7.12502 0 0
rthumb -3.24354 -54.094 0
357
root 9.34047 16.8797 14.1959 6.04812 7.19897 -2.24073
lfemur -14.175 6.25832 -14.4201
ltibia 49.4284 0 0
lfoot -0.898065 7.09062 0
ltoes -7.66933 0 0
rfemur -23.321 4.32152 26.6092
rtibia 34.7431 0 0
rfoot -15.8099 2.2092 0
rtoes -13.2966 0 0
lowerback -5.99658 -1.93376 -1.06822
upperback -1.1175 -2.58628 3.09651
thorax 2.47197 -1.30798 3.57188
lowerneck -19.9197 -5.86732 -12.9053
upperneck 21.0876 -7.64112 13.4721
head 11.1832 -2.96759 5.91901
lclavicle 1.32254e-016 4.37327e-015 0
lhumerus -37.6573 -19.34 99.2155
lradius 26.115 0 0
lwrist 7.46411 0 0
lhand -12.4599 -22.413 0
lfingers 7.12502 0 0
lthumb 13.6132 7.11077 0
rclavicle 1.32254e-016 4.37327e-015 0
rhumerus -39.5491 11.3525 -82.5907
rradius 37.625 0 0
rwrist -19.8763 0 0
rhand -30.0039 -24.1216 0
rfingers 7.12502 0 0
rthumb -3.32121 -54.072 0
358
root 9.34016 16.8917 14.3219 6.0579 6.98167 -2.29596
lfemur -15.5213 6.21076 -14.6369
ltibia 49.7866 0 0
lfoot -1.77494 7.38592 0
ltoes -7.39252 0 0
rfemur -22.6475 4.43684 26.77
rtibia 34.3685 0 0
rfoot -16.0243 2.26852 0
rtoes -13.35 0 0
lowerback -5.98222 -1.78639 -0.990183
upperback -1.09013 -2.39463 3.07725
thorax 2.47444 -1.21183 3.52437
lowerneck -19.9239 -5.89101 -12.8772
upperneck 21.1128 -7.66989 13.4129
head 11.1937 -2.98467 5.88715
lclavicle 6.6527e-017 4.77085e-015 0
lhumerus -38.2329 -19.243 99.1145
lradius 26.2489 0 0
lwrist 7.75974 0 0
lhand -12.5953 -22.4104 0
lfingers 7.12502 0 0
lthumb 13.4826 7.12217 0
rclavicle 6.6527e-017 4.77085e-015 0
rhumerus -39.1364 11.7879 -82.677
rradius 38.0466 0 0
rwrist -20.0873 0 0
rhand -30.0844 -24.1008 0
rfingers 7.12502 0 0
rthumb -3.39887 -54.0501 0
359
root 9.33985 16.9036 14.4478 6.06768 6.76436 -2.35119
lfemur -16.8675 6.16319 -14.8536
ltibia 50.1449 0 0
lfoot -2.65181 7.68122 0
ltoes -7.11572 0 0
rfemur -21.974 4.55215 26.9309
rtibia 33.994 0 0
rfoot -16.2386 2.32783 0
rtoes -13.4035 0 0
lowerback -5.96786 -1.63902 -0.912143
upperback -1.06275 -2.20297 3.05799
thorax 2.4769 -1.11569 3.47685
lowerneck -19.928 -5.9147 -12.8491
upperneck 21.1379 -7.69866 13.3536
head 11.2042 -3.00175 5.85529
lclavicle 7.99903e-019 5.16842e-015 0
lhumerus -38.8086 -19.146 99.0135
lradius 26.3827 0 0
lwrist 8.05537 0 0
lhand -12.7308 -22.4077 0
lfingers 7.12502 0 0
lthumb 13.3521 7.13356 0
rclavicle 7.99903e-019 5.16842e-015 0
rhumerus -38.7237 12.2233 -82.7633
rradius 38.4683 0 0
rwrist -20.2983 0 0
rhand -30.1648 -24.0801 0
rfingers 7.12502 0 0
rthumb -3.47654 -54.0281 0
360
root 9.33954 16.9156 14.5738 6.07746 6.54705 -2.40642
lfemur -18.2138 6.11563 -15.0704
ltibia 50.5032 0 0
lfoot -3.52868 7.97652 0
ltoes -6.83891 0 0
rfemur -21.3005 4.66747 27.0917
rtibia 33.6195 0 0
rfoot -16.4529 2.38714 0
rtoes -13.4569 0 0
lowerback -5.9535 -1.49165 -0.834103
upperback -1.03538 -2.01132 3.03873
thorax 2.47936 -1.01954 3.42933
lowerneck -19.9322 -5.93839 -12.821
upperneck 21.1631 -7.72742 13.2944
head 11.2148 -3.01883 5.82344
lclavicle -6.49272e-017 5.56599e-015 0
lhumerus -39.3843 -19.049 98.9124
lradius 26.5165 0 0
lwrist 8.351 0 0
lhand -12.8662 -22.405 0
lfingers 7.12502 0 0
lthumb 13.2215 7.14495 0
rclavicle -6.49272e-017 5.56599e-015 0
rhumerus -38.3109 12.6587 -82.8496
rradius 38.8899 0 0
rwrist -20.5093 0 0
rhand -30.2452 -24.0593 0
rfingers 7.12502 0 0
rthumb -3.55421 -54.0061 0
361
root 9.33923 16.9276 14.6997 6.08724 6.32974 -2.46166
lfemur -19.56 6.06807 -15.2871
ltibia 50.8615 0 0
lfoot -4.40555 8.27182 0
ltoes -6.56211 0 0
rfemur -20.6271 4.78278 27.2526
rtibia 33.245 0 0
rfoot -16.6673 2.44646 0
rtoes -13.5104 0 0
lowerback -5.93915 -1.34428 -0.756064
upperback -1.00801 -1.81966 3.01947
thorax 2.48182 -0.923393 3.38182
lowerneck -19.9363 -5.96208 -12.7929
upperneck 21.1882 -7.75619 13.2351
head 11.2253 -3.03591 5.79158
lclavicle -1.30654e-016 5.96356e-015 0
lhumerus -39.9599 -18.952 98.8114
lradius 26.6503 0 0
lwrist 8.64663 0 0
lhand -13.0017 -22.4023 0
lfingers 7.12502 0 0
lthumb 13.091 7.15635 0
rclavicle -1.30654e-016 5.96356e-015 0
rhumerus -37.8982 13.0941 -82.9359
rradius 39.3116 0 0
rwrist -20.7203 0 0
rhand -30.3257 -24.0386 0
rfingers 7.12502 0 0
rthumb -3.63188 -53.9841 0
